<svg xmlns="http://www.w3.org/2000/svg" viewBox="0 0 100 100" id="rotate-mobile"><path d="M95 58.04v5.07c0 1.1-.9 2-2 2s-2-.9-2-2v-5.07a2 2 0 1 1 4 0zM88.25 47c0-1.1-.9-2-2-2h-5.08c-1.1 0-2 .9-2 2A2 2 0 0 0 81 48.98v.52c0 1.1.9 2 2 2s2-.9 2-2V49h1.25c1.06 0 1.92-.83 1.98-1.87.01-.04.02-.09.02-.13zm4.02-.02c-.83-.72-2.09-.64-2.82.19-.07.09-.13.18-.19.27-.51.82-.37 1.9.38 2.55.86.76 1.35 1.84 1.36 2.98 0 1.11.9 1.99 2 1.99h.01A2 2 0 0 0 95 52.95a8.011 8.011 0 0 0-2.73-5.97zM65.96 45h-5.08c-1.1 0-2 .9-2 2s.9 2 2 2h5.08c1.1 0 2-.9 2-2s-.9-2-2-2zM55 87c0 1.46-.4 2.82-1.08 4h.45a2 2 0 1 1 0 4H49.3c-.27 0-.53-.05-.76-.15-.5.1-1.01.15-1.54.15H13c-.26 0-.51-.01-.77-.04-.09-.01-.19-.03-.29-.04-.15-.02-.3-.04-.45-.07-.12-.02-.23-.05-.34-.07-.13-.04-.26-.07-.4-.11-.11-.03-.21-.07-.32-.1-.13-.05-.27-.09-.4-.15-.09-.04-.19-.08-.29-.12-.14-.06-.27-.13-.41-.2-.08-.04-.16-.08-.24-.13-.15-.08-.3-.17-.44-.27-.06-.04-.12-.07-.18-.11-.16-.11-.32-.23-.47-.36-.04-.03-.08-.06-.11-.09-.05-.03-.09-.06-.13-.09-.03-.03-.06-.07-.1-.11a7.968 7.968 0 0 1-2.65-5.76c0-.02-.01-.04-.01-.07V13c0-4.41 3.59-8 8-8h34c4.41 0 8 3.59 8 8v32h.81a2 2 0 1 1 0 4H55v38zm-4-8H9v8c0 2.21 1.79 4 4 4h34c2.21 0 4-1.79 4-4v-8zm0-60H9v56h42V19zm0-6c0-2.21-1.79-4-4-4H13c-2.21 0-4 1.79-4 4v2h42v-2zm23.66 78h-5.07a2 2 0 1 0 0 4h5.07a2 2 0 1 0 0-4zm-10.14 0h-5.08c-1.1 0-2 .9-2 2s.9 2 2 2h5.08c1.1 0 2-.9 2-2s-.9-2-2-2zM76.1 45h-5.07a2 2 0 1 0 0 4h5.07a2 2 0 1 0 0-4zM85 91.02v-.52c0-1.1-.9-2-2-2s-2 .9-2 2v.5h-1.26a2 2 0 1 0 0 4h5.07c1.1 0 2-.9 2-2 0-1.04-.8-1.88-1.81-1.98zm8-24.84c-1.1 0-2 .9-2 2v5.08c0 1.1.9 2 2 2s2-.9 2-2v-5.08c0-1.1-.9-2-2-2zm0 10.15a2 2 0 0 0-2 2v5.07a2 2 0 1 0 4 0v-5.07a2 2 0 0 0-2-2zm.3 10.19c-.1-.03-.2-.04-.3-.04-.96-.09-1.88.53-2.12 1.5a4.018 4.018 0 0 1-2.04 2.57c-.87.46-1.26 1.47-.97 2.38.03.11.07.22.13.32.35.68 1.05 1.07 1.77 1.07.31 0 .63-.07.92-.22a8.015 8.015 0 0 0 4.07-5.15c.27-1.08-.38-2.16-1.46-2.43zM83 60.61a2 2 0 0 0 2-2v-4.55a2 2 0 1 0-4 0v4.55a2 2 0 0 0 2 2zm-2 7.11a2 2 0 1 0 4 0v-4.55a2 2 0 1 0-4 0v4.55zm0 9.11a2 2 0 1 0 4 0v-4.55a2 2 0 1 0-4 0v4.55zm0 9.11a2 2 0 1 0 4 0v-4.55a2 2 0 1 0-4 0v4.55zM30 87c.53 0 1.04-.21 1.41-.59a1.966 1.966 0 0 0 .55-1.8c-.02-.13-.06-.26-.11-.38s-.11-.23-.19-.34c-.07-.11-.15-.21-.25-.3-.09-.1-.19-.18-.3-.25s-.22-.14-.34-.19c-.13-.05-.25-.09-.38-.11-.65-.13-1.34.08-1.8.55-.1.09-.18.19-.25.3-.07.11-.14.22-.19.34-.05.12-.09.25-.11.38a1.966 1.966 0 0 0 .55 1.8c.37.38.88.59 1.41.59zm33-74h4c8.82 0 16 7.18 16 16v3.17l-4.59-4.59c-.78-.78-2.05-.78-2.83 0-.78.78-.78 2.05 0 2.83l8 8c.09.09.2.18.31.25.05.03.1.05.15.08.06.04.13.07.2.1.06.03.13.04.2.06.06.02.11.04.17.05.13.04.26.05.39.05s.26-.01.39-.04c.06-.01.12-.03.17-.05.07-.02.14-.04.2-.06.07-.03.13-.07.2-.1.05-.03.1-.05.15-.08.11-.07.21-.16.31-.25l8-8c.78-.78.78-2.05 0-2.83-.78-.78-2.05-.78-2.83 0L87 32.17V29c0-11.03-8.97-20-20-20h-4c-1.1 0-2 .9-2 2s.9 2 2 2z"></path></svg>